<svg width="18" height="18" viewBox="0 0 24 24" fill="#aaa" xmlns="http://www.w3.org/2000/svg">
  <path d="M8.246 20.655c-.067 0-.07.012-.07.095v.737c0 .229.027.437.288.437a.299.298 0 0 0 .106-.02c.036-.011.088-.053.1-.053.03 0 .047.043.038.067a.544.543 0 0 1-.414.181c-.34 0-.41-.189-.41-.425v-.905c0-.107-.004-.115-.083-.115h-.11a.065.065 0 0 1-.013-.082.8.799 0 0 0 .253-.122 1.013 1.011 0 0 0 .166-.233c.02-.008.067-.008.083.02v.176c0 .072.004.076.071.076h.439a.13.13 0 0 1 .003.166zm1.467-.76c.266-.207.604-.308.981-.308a2.795 2.79 0 0 1 .644.087.3.3 0 0 0 .102.014c.003.084.022.312.05.533a.08.08 0 0 1-.097.006c-.054-.246-.219-.53-.747-.53-.556 0-1.03.353-1.03 1.104 0 .762.484 1.182 1.081 1.182.468 0 .676-.304.759-.518a.08.08 0 0 1 .095.014c-.026.19-.12.429-.174.497a.715.714 0 0 0-.128.037 2.125 2.12 0 0 1-.574.083c-.327 0-.64-.065-.907-.242a1.173 1.171 0 0 1-.516-1 1.21 1.207 0 0 1 .46-.959Zm3.943 1.355c0 .493-.34.848-.833.848-.454 0-.81-.32-.81-.813a.83.829 0 0 1 .842-.851.79.79 0 0 1 .801.816m-.849-.697c-.26 0-.453.249-.453.681 0 .36.16.746.509.746.35 0 .453-.363.453-.667 0-.334-.134-.76-.509-.76m2.826.915c0 .31.003.456.114.456a.7.7 0 0 0 .17-.039c.028.008.031.107-.004.126a2.917 2.911 0 0 0-.521.126c-.024 0-.043-.011-.043-.032v-.066a.4.4 0 0 0-.008-.122h-.016c-.174.118-.309.181-.498.181-.438 0-.73-.342-.73-.757 0-.551.418-.905.955-.905a.82.818 0 0 1 .267.035c.02 0 .024-.023.024-.053v-.598c0-.233-.004-.257-.123-.327l-.04-.024a.06.06 0 0 1 0-.079 2.822 2.817 0 0 0 .427-.165.04.04 0 0 1 .039.023c-.004.119-.012.315-.012.489zm-.292-.592a.23.23 0 0 0-.044-.154.41.41 0 0 0-.332-.165c-.359 0-.545.311-.545.654 0 .359.202.698.587.698a.483.482 0 0 0 .304-.11c.024-.024.028-.083.028-.147zm1.293.158c-.102 0-.107.008-.107.106 0 .398.234.737.656.737.13 0 .241-.039.363-.193a.053.053 0 0 1 .071.047c-.13.266-.414.367-.62.367a.707.706 0 0 1-.57-.26.837.836 0 0 1-.166-.513c0-.485.32-.89.793-.89.34 0 .56.232.56.469a.24.24 0 0 1-.015.102c-.012.024-.067.028-.233.028zm.245-.119c.292 0 .38-.015.41-.039.013-.008.024-.023.024-.074 0-.111-.075-.249-.304-.249-.23 0-.434.213-.438.342 0 .009 0 .02.027.02zm1.43-.004c0-.153 0-.173-.107-.244l-.035-.024a.053.053 0 0 1 .004-.07 3.12 3.114 0 0 0 .399-.194q.03.005.031.028v.228q0 .03.012.036c.138-.114.288-.236.434-.236a.163.163 0 0 1 .178.157.175.175 0 0 1-.17.182.15.15 0 0 1-.086-.028.33.33 0 0 0-.175-.063.17.17 0 0 0-.142.08c-.04.052-.053.168-.053.303v.535c0 .284.008.331.16.343l.142.012a.07.07 0 0 1-.008.098c-.186-.007-.3-.012-.439-.012q-.208 0-.363.012a.07.07 0 0 1-.007-.098l.075-.012c.145-.023.15-.059.15-.343zM7.365 21.956l-.107-.012c-.169-.02-.22-.079-.335-.418l-.542-1.584c-.059-.173-.122-.355-.173-.528a.06.06 0 0 0-.06-.035.443.442 0 0 1-.204.15c.011.062-.013.137-.068.28l-.403 1.064c-.165.441-.276.698-.347.879-.053.142-.142.186-.237.193l-.13.012a.08.08 0 0 0 .007.098c.107-.003.249-.011.38-.011.185.004.307.004.41.011a.064.064 0 0 0 .008-.098l-.13-.012c-.095-.007-.114-.03-.114-.079a1.534 1.531 0 0 1 .086-.327l.139-.414c.027-.082.053-.094.15-.094h.526l-.049-.16h-.418c-.111 0-.114-.003-.084-.094l.25-.686a3 3 0 0 1 .095-.232h.008a2.62 2.614 0 0 1 .09.248l.177.528.152.461.012.032.172.539a.795.794 0 0 1 .054.209c0 .04-.054.063-.139.07l-.114.012a.066.065 0 0 0 .008.099c.114-.003.267-.012.454-.012.178 0 .316.004.48.012a.08.08 0 0 0-.004-.101m11.248-10.433c.048-.075.62-.373.614-.379-.18-.137-.575-.049-.897-.08-.07-.006-.31-.085-.389-.09-.118-.006-.117.107-.115.174 0 .007-.034.65-.034.905a.2.2 0 0 0 .014.075c.005.01.214-.186.281-.248-.087-.09-.053-.44-.057-.589 0-.057.025-.09.056-.057a.88.878 0 0 0 .527.292m-.648.916c.092.066.132.046.199.08a.435.434 0 0 1 .134.142.5.498 0 0 1 .053.152.16.16 0 0 0 .219.114c.042-.013.213-.508.06-.575-.107-.049-.183.043-.25.034-.042-.005-.022-.123-.021-.128a.09.09 0 0 0-.07-.085.523.522 0 0 0-.071.01c-.01 0-.254.256-.254.256m2.694 2.357a4.93 4.921 0 0 0 .113.966.07.07 0 0 1-.028.09c-.29.248-.59.55-.853.681-.084.041-.171.057-.22.115-.041.049-.04.133-.038.198a.427.426 0 0 1-.113.325.17.169 0 0 0-.03.031c-.053.103-.046.373.039.42.045.024.247-.154.324-.295.014-.026-.032-.14-.05-.203a.117.117 0 0 1 .094-.14.13.13 0 0 0 .072-.034c.032-.035.025-.104.007-.163a.107.106 0 0 1-.005-.075c.004-.017.297-.208.395-.282.213-.16.703-.294.862-.498.05-.064.06-.137-.005-.194-.066-.058-.514-.662-.562-.942m3.34-.407c.006.003-.373-.413-.98-.112-.004 0-.32-.24-.42-.327-.025-.022.067-.291-.217-.561-.23-.22-.956-.589-1.26-1.16-.184-.348.121-1.093.076-1.703-.007-.094-.142-.22-.164-.295-.14-.485-.179-.692-.256-.895a.3.3 0 0 1-.137.173c.044-.072.107-.213.057-.344a.624.623 0 0 0-.042-.063.379.378 0 0 1-.107.31c.02-.045.078-.308.039-.387l-.054-.048c-.018-.015-.025-.019-.037-.028a.657.656 0 0 1-.041.34 1.097 1.095 0 0 0-.035-.387 1.092 1.09 0 0 0-.834-.063.524.523 0 0 0-.298.31l-1.401-.247-.012.006.007.01 1.343.542c-.017.224.005.456-.026.61s-.107.188-.107.242c0 .062.065.198.214.078.032-.026.059-.08.12-.068.1.02.022.152.104.16.126.009.065-.207.077-.272s.095-.373.249-.351c.138.02.115.11.116.213a.921.92 0 0 1-.049.397c-.07.06-.533.526-.675.75-.008.014-.561.296-.776.449-.733.52-1.08 1.097-1.056 1.281 0 .014.136.277.219.435.013.088-.025.407.07.426.113.023.392-.381.307-.489-.062-.08-.142-.043-.17-.088a.1.1 0 0 1-.018-.033c-.012-.027.058-.106.035-.178-.043-.127-.134-.073-.15-.131a.628.627 0 0 1-.024-.143.2.2 0 0 1 .03-.117c.144-.208.52-.627.84-.693.02-.004.51.529.83.575.012 0 .382 1.018 1.085 1.084-.084.552.495 1.985 1 2.263.058.033.053.15.027.184-.027.035-.694.657-.985.966-.036.037-.028.261-.032.29-.012.084-.118.46-.047.514.094.072.468-.202.346-.35-.023-.027-.146-.08-.095-.167.027-.047.192-.022.244-.107.033-.053.005-.16.004-.213s.71-.713.894-.882a.122.121 0 0 0 .063-.095 1 1 0 0 0-.01-.137c-.01-.067-.486-.647-.086-.927.137-.095.63-.4.753-.77a1.422 1.42 0 0 1 .279.243c-.226.173-.393.512-.423.577-.006.011.216-.17.41-.223.008 0-.618.817-.586 1.197a1.363 1.36 0 0 1 .417-.578c.013-.01-.567 1.168.17 1.957 0 0-.246-.805-.116-1.05.003-.006.348.734.902.71.009 0-.452-.394-.558-1.007a.837.835 0 0 0 .423.27c.023.005-.457-.58-.164-1.014.013.346.241.565.32.59.012.003-.173-.438-.035-.742.069.078.143.213.335.21a1.699 1.696 0 0 1-.24-.886c.001-.046.143-.103.318-.031m-4.433-5.676h.007a1.25 1.247 0 0 1 .37-.057 1.12 1.118 0 0 1 .529.127l.032.017.03.02.022.016.042.03c.014.01.04.036.06.053l.011.013.037.039.027.035a.765.764 0 0 1 .046.07l.006.009.035.067c.071.146.12.327.185.577.075-.33.172-.66.02-1.065-.081-.213-.474-.847-1.44-.702-.657.098-1.017.733-1.017.733l.625.266s.232-.19.373-.248m-14.18 2.807c-.048-.075-.62-.373-.614-.379.181-.137.575-.049.897-.08.07-.006.31-.085.39-.09.117-.006.116.107.114.174 0 .007.035.65.035.905a.2.2 0 0 1-.015.075c-.005.01-.214-.186-.281-.248.087-.09.053-.44.057-.589 0-.057-.025-.09-.056-.057a.878.877 0 0 1-.527.292m.647.916c-.091.066-.132.046-.199.08a.445.444 0 0 0-.133.142.485.484 0 0 0-.053.152.16.16 0 0 1-.22.114c-.043-.013-.21-.508-.06-.575.107-.049.182.043.25.034.042-.005.022-.123.022-.128a.09.09 0 0 1 .07-.085.533.532 0 0 1 .07.01c.01 0 .254.256.254.256m-2.693 2.357a4.93 4.92 0 0 1-.114.966.07.07 0 0 0 .029.09c.29.248.59.55.853.681.083.041.17.057.219.115.041.049.04.133.037.198a.431.43 0 0 0 .115.325.2.2 0 0 1 .029.031c.053.103.046.373-.04.42-.044.024-.246-.154-.322-.295-.015-.026.03-.14.05-.203a.12.12 0 0 0-.091-.14.123.122 0 0 1-.072-.034c-.033-.035-.025-.104-.008-.163a.107.106 0 0 0 .005-.074c-.005-.017-.297-.208-.395-.282-.213-.16-.704-.294-.862-.498-.05-.064-.061-.137.005-.194.066-.058.513-.663.562-.943M0 14.392c-.007.003.373-.413.98-.112.004 0 .32-.24.419-.327.026-.022-.066-.291.217-.561.232-.22.956-.589 1.26-1.16.184-.348-.12-1.093-.076-1.703.008-.094.143-.22.164-.295.141-.485.179-.692.256-.895a.3.299 0 0 0 .14.174c-.044-.071-.107-.213-.057-.343a.621.62 0 0 1 .042-.063.37.37 0 0 0 .106.309c-.018-.044-.077-.307-.038-.386a.675.674 0 0 1 .054-.048l.037-.028a.653.652 0 0 0 .04.339 1.11 1.107 0 0 1 .035-.386 1.092 1.09 0 0 1 .835-.063.525.524 0 0 1 .298.309l1.4-.246.013.006-.007.01-1.347.541c.018.225-.004.457.026.61s.107.189.107.243c0 .062-.065.198-.213.078-.033-.026-.06-.08-.12-.068-.1.02-.022.152-.104.16-.126.009-.065-.208-.077-.273-.012-.064-.096-.372-.25-.35-.137.019-.115.11-.116.213a.943.941 0 0 0 .05.397c.068.059.532.525.674.75.01.013.561.296.777.449.733.519 1.08 1.097 1.056 1.281 0 .014-.136.276-.22.435-.013.088.025.406-.07.426-.111.023-.391-.382-.307-.49.062-.079.142-.042.17-.087l.018-.033c.013-.027-.058-.107-.034-.178.042-.127.133-.074.149-.132a.662.661 0 0 0 .025-.143.219.218 0 0 0-.03-.117c-.145-.208-.52-.626-.84-.692-.022-.004-.51.528-.83.575-.014 0-.382 1.018-1.086 1.083.084.553-.494 1.986-1 2.264-.058.032-.05.149-.026.184.023.034.693.657.985.965.036.038.028.262.032.292.011.083.118.459.047.513-.095.072-.469-.203-.347-.35.024-.028.146-.08.096-.168-.027-.047-.193-.021-.245-.106-.032-.053-.004-.16-.003-.213.002-.053-.713-.714-.896-.883a.12.12 0 0 1-.064-.095 1.02 1.017 0 0 1 .011-.137c.01-.068.486-.647.086-.927-.136-.096-.63-.401-.753-.77a1.41 1.408 0 0 0-.276.242c.226.173.393.513.423.577.005.012-.216-.169-.411-.222-.007 0 .619.817.586 1.197a1.363 1.36 0 0 0-.416-.58c-.014-.01.567 1.17-.17 1.958 0 0 .245-.805.115-1.05-.003-.006-.348.734-.902.71-.008 0 .452-.394.558-1.007a.834.832 0 0 1-.423.268c-.022.004.457-.58.165-1.015-.013.346-.241.565-.32.59-.012.003.172-.437.035-.741-.07.077-.144.213-.335.21a1.714 1.71 0 0 0 .24-.887c-.001-.043-.144-.1-.318-.028m4.433-5.676h-.007a1.247 1.245 0 0 0-.374-.057 1.12 1.118 0 0 0-.528.127l-.032.017-.03.02-.022.016a1 1 0 0 0-.101.084l-.013.012-.036.039-.026.035a.673.671 0 0 0-.047.07l-.006.009-.035.067c-.071.146-.12.327-.186.577-.074-.33-.17-.66-.018-1.065.08-.213.473-.847 1.44-.702.656.098 1.017.733 1.017.733l-.625.266s-.23-.19-.37-.248z"/>
</svg>
